staticP12_grf.mot
version=1
nRows=10
nColumns=19
inDegrees=yes
endheader
time	1_ground_force_vx	1_ground_force_vy	1_ground_force_vz	1_ground_force_px	1_ground_force_py	1_ground_force_pz	1_ground_torque_x	1_ground_torque_y	1_ground_torque_z	2_ground_force_vx	2_ground_force_vy	2_ground_force_vz	2_ground_force_px	2_ground_force_py	2_ground_force_pz	2_ground_torque_x	2_ground_torque_y	2_ground_torque_z
            0.505000	           -0.011512	           -0.191192	           -0.037235	            0.300343	            0.002779	           -0.250042	            0.100477	            0.009470	           -0.095168	            0.009151	           -0.007418	           -0.011618	            0.905879	            0.000867	           -0.251058	            0.058828	            0.000632	           -0.014796
            0.506000	            0.004914	            0.048554	           -0.013618	            0.300343	            0.002779	           -0.250042	           -0.016945	           -0.005714	           -0.074737	           -0.006459	           -0.086879	           -0.011783	            0.905879	            0.000867	           -0.251058	            0.075393	            0.008803	           -0.076862
            0.507000	           -0.019137	           -0.190769	            0.008651	            0.300343	            0.002779	           -0.250042	            0.033299	           -0.000689	           -0.053871	            0.010262	            0.311315	           -0.010328	            0.905879	            0.000867	           -0.251058	           -0.109201	            0.006294	           -0.097429
            0.508000	           -0.019402	           -0.272288	            0.008416	            0.300343	            0.002779	           -0.250042	            0.083986	           -0.007625	            0.049996	           -0.006495	           -0.088476	           -0.027275	            0.905879	            0.000867	           -0.251058	           -0.058785	            0.004014	            0.048059
            0.509000	            0.032737	           -0.589680	           -0.000175	            0.300343	            0.002779	           -0.250042	           -0.016777	            0.007127	           -0.074342	           -0.007595	           -0.407566	           -0.051494	            0.905879	            0.000867	           -0.251058	            0.008295	           -0.003901	            0.047899
            0.510000	           -0.019505	           -0.270881	           -0.029832	            0.300343	            0.002779	           -0.250042	           -0.016689	            0.005417	           -0.033015	            0.010824	            0.471474	            0.005477	            0.905879	            0.000867	           -0.251058	           -0.042058	           -0.002851	           -0.055894
            0.511000	            0.020824	            0.207561	           -0.028465	            0.300343	            0.002779	           -0.250042	           -0.016858	            0.001228	            0.008108	            0.001791	            0.071648	            0.019437	            0.905879	            0.000867	           -0.251058	           -0.025177	            0.002484	            0.006326
            0.512000	           -0.019437	           -0.271953	            0.008456	            0.300343	            0.002779	           -0.250042	            0.050461	            0.003690	            0.049972	           -0.006474	           -0.088262	           -0.011898	            0.905879	            0.000867	           -0.251058	           -0.025253	            0.003913	            0.048086
            0.513000	           -0.017839	            0.127389	           -0.013389	            0.300343	            0.002779	           -0.250042	            0.033546	            0.001173	           -0.012464	           -0.022881	           -0.407341	            0.009977	            0.905879	            0.000867	           -0.251058	           -0.058978	            0.002825	           -0.160023
            0.514000	            0.019498	           -0.111687	            0.008845	            0.300343	            0.002779	           -0.250042	           -0.016697	           -0.005261	           -0.074540	            0.001250	           -0.088455	            0.011238	            0.905879	            0.000867	           -0.251058	           -0.058727	            0.002149	            0.006276
